
<svg xmlns="http://www.w3.org/2000/svg" viewBox="0 0 24 24"
     fill="none" stroke="currentColor" stroke-width="2" stroke-linecap="round" stroke-linejoin="round">
  <!-- Burbuja redondeada -->
  <path d="M20 12a8 8 0 0 1-11.6 7L4 20l1.1-3.9A8 8 0 1 1 20 12z"/>
  <!-- Auricular / forma de teléfono -->
  <path d="M8.5 9.5c.2 1 1 2.1 2.2 3.3s2.3 2 3.3 2.2c.3.1.6.1.8 0l1.3-.7a1.3 1.3 0 0 0 .6-1.6l-.3-.9a1 1 0 0 0-1.1-.7l-1 .2c-.2 0-.4 0-.5-.1-.5-.2-1.1-.6-1.9-1.4s-1.2-1.4-1.4-1.9c0-.2 0-.3.1-.5l.2-1a1 1 0 0 0-.7-1.1l-.9-.3a1.3 1.3 0 0 0-1.6.6l-.7 1.3c-.1.2-.1.5 0 .8z"/>
</svg>
